<svg width="584" height="94" viewBox="0 0 584 94" fill="none" xmlns="http://www.w3.org/2000/svg">
<path d="M19.336 16.1364C12.928 16.1364 8.10404 18.8004 4.79204 24.0564V2.60043H0.0400391V53.0004H4.79204V45.9444C8.10404 51.2004 12.928 53.8644 19.336 53.8644C24.448 53.8644 28.84 52.0644 32.44 48.3924C36.112 44.7204 37.912 40.2564 37.912 35.0004C37.912 29.7444 36.112 25.2804 32.44 21.6084C28.84 17.9364 24.448 16.1364 19.336 16.1364ZM8.89604 45.1524C6.16004 42.3444 4.79204 38.9604 4.79204 35.0004C4.79204 31.0404 6.16004 27.6564 8.89604 24.9204C11.632 22.1124 15.016 20.7444 18.976 20.7444C22.936 20.7444 26.32 22.1124 29.056 24.9204C31.792 27.6564 33.16 31.0404 33.16 35.0004C33.16 38.9604 31.792 42.3444 29.056 45.1524C26.32 47.8884 22.936 49.2564 18.976 49.2564C15.016 49.2564 11.632 47.8884 8.89604 45.1524Z" fill="white" fill-opacity="0.5"/>
<path d="M73.3175 35.8644C73.3175 45.0084 68.5655 49.2564 61.6535 49.2564C55.3895 49.2564 51.8615 45.5124 51.8615 39.1044V17.0004H47.1095V39.1044C47.1095 48.1044 52.5095 53.8644 61.2215 53.8644C66.6215 53.8644 70.6535 51.7044 73.3175 47.3844V53.0004H78.0695V17.0004H73.3175V35.8644Z" fill="white" fill-opacity="0.5"/>
<path d="M95.1059 10.7364C96.4739 9.36843 96.4739 7.20843 95.1059 5.84043C93.7379 4.47243 91.5779 4.47243 90.2099 5.84043C88.8419 7.20843 88.8419 9.36843 90.2099 10.7364C91.5779 12.1044 93.7379 12.1044 95.1059 10.7364ZM95.0339 53.0004V17.0004H90.2819V53.0004H95.0339Z" fill="white" fill-opacity="0.5"/>
<path d="M112.03 53.0004V0.44043H107.278V53.0004H112.03Z" fill="white" fill-opacity="0.5"/>
<path d="M155.234 24.0564C151.922 18.8004 147.098 16.1364 140.69 16.1364C135.578 16.1364 131.186 17.9364 127.514 21.6084C123.914 25.2804 122.114 29.7444 122.114 35.0004C122.114 40.2564 123.914 44.7204 127.514 48.3924C131.186 52.0644 135.578 53.8644 140.69 53.8644C147.098 53.8644 151.922 51.2004 155.234 45.9444V53.0004H159.986V2.60043H155.234V24.0564ZM130.97 45.1524C128.234 42.3444 126.866 38.9604 126.866 35.0004C126.866 31.0404 128.234 27.6564 130.97 24.9204C133.706 22.1124 137.09 20.7444 141.05 20.7444C145.01 20.7444 148.394 22.1124 151.13 24.9204C153.866 27.6564 155.234 31.0404 155.234 35.0004C155.234 38.9604 153.866 42.3444 151.13 45.1524C148.394 47.8884 145.01 49.2564 141.05 49.2564C137.09 49.2564 133.706 47.8884 130.97 45.1524Z" fill="white" fill-opacity="0.5"/>
<path d="M222.535 48.4644C226.207 44.7924 228.079 40.3284 228.079 35.0004C228.079 29.6724 226.207 25.2084 222.535 21.6084C218.863 17.9364 214.399 16.1364 209.143 16.1364C203.887 16.1364 199.351 17.9364 195.679 21.6084C192.007 25.2084 190.207 29.6724 190.207 35.0004C190.207 40.3284 192.007 44.7924 195.679 48.4644C199.351 52.0644 203.887 53.8644 209.143 53.8644C214.399 53.8644 218.863 52.0644 222.535 48.4644ZM199.063 45.1524C196.327 42.3444 194.959 38.9604 194.959 35.0004C194.959 31.0404 196.327 27.6564 199.063 24.9204C201.799 22.1124 205.183 20.7444 209.143 20.7444C213.103 20.7444 216.487 22.1124 219.223 24.9204C221.959 27.6564 223.327 31.0404 223.327 35.0004C223.327 38.9604 221.959 42.3444 219.223 45.1524C216.487 47.8884 213.103 49.2564 209.143 49.2564C205.183 49.2564 201.799 47.8884 199.063 45.1524Z" fill="white" fill-opacity="0.5"/>
<path d="M255.039 16.1364C249.639 16.1364 245.607 18.2964 242.943 22.6164V17.0004H238.191V53.0004H242.943V34.1364C242.943 24.9924 247.695 20.7444 254.607 20.7444C260.871 20.7444 264.399 24.4884 264.399 30.8964V53.0004H269.151V30.8964C269.151 21.8964 263.751 16.1364 255.039 16.1364Z" fill="white" fill-opacity="0.5"/>
<path d="M330.672 53.9361C335.856 53.9361 340.032 52.6401 343.272 50.0481C346.512 47.3841 348.096 43.8561 348.096 39.4641C348.096 36.2961 347.376 33.7041 345.576 31.9041C344.352 30.4641 343.704 29.6721 341.688 28.5921C339.744 27.5121 339.168 27.1521 336.648 26.2161C335.424 25.7121 334.56 25.4241 333.984 25.2081L331.032 24.2721C327.144 23.0481 324.408 21.8241 322.824 20.6721C321.24 19.5201 320.448 17.8641 320.448 15.6321C320.448 11.0241 324.12 8.14406 329.592 8.14406C335.064 8.14406 338.88 10.7361 341.04 15.9201L346.656 12.6801C343.704 6.05607 337.584 1.66406 329.592 1.66406C325.2 1.66406 321.456 2.96006 318.36 5.55206C315.264 8.07207 313.752 11.5281 313.752 15.9201C313.752 19.5921 315.264 22.5441 316.92 24.3441C317.712 25.2081 318.936 26.0721 320.592 26.9361C322.248 27.7281 323.688 28.3761 324.768 28.8081L329.592 30.3921C333.84 31.7601 336.936 32.9841 338.736 34.2081C340.536 35.4321 341.472 37.2321 341.472 39.6081C341.472 44.2881 337.728 47.3841 330.816 47.3841C323.832 47.3841 319.296 44.3601 317.352 38.2401L311.592 41.5521C314.256 49.2561 321.24 53.9361 330.672 53.9361Z" fill="white"/>
<path d="M355.521 27.8001C355.521 35.0721 358.041 41.1921 363.081 46.3041C368.121 51.4161 374.313 53.9361 381.585 53.9361C388.857 53.9361 395.049 51.4161 400.089 46.3041C405.201 41.1921 407.721 35.0721 407.721 27.8001C407.721 20.5281 405.201 14.3361 400.089 9.29606C395.049 4.18406 388.857 1.66406 381.585 1.66406C374.313 1.66406 368.121 4.18406 363.081 9.29606C358.041 14.3361 355.521 20.5281 355.521 27.8001ZM401.025 27.8001C401.025 33.3441 399.153 37.9521 395.409 41.7681C391.737 45.5121 387.129 47.3841 381.585 47.3841C376.041 47.3841 371.433 45.5121 367.689 41.7681C364.017 37.9521 362.145 33.3441 362.145 27.8001C362.145 22.2561 364.017 17.5761 367.689 13.8321C371.433 10.0161 376.041 8.14406 381.585 8.14406C387.129 8.14406 391.737 10.0161 395.409 13.8321C399.153 17.5761 401.025 22.2561 401.025 27.8001Z" fill="white"/>
<path d="M424.627 2.60006H417.931V53.0001H446.371V46.6641H424.627V2.60006Z" fill="white"/>
<path d="M496.973 53.0001L478.181 2.60006H470.621L451.829 53.0001H458.957L463.061 41.6961H485.741L489.845 53.0001H496.973ZM474.365 10.5921L483.437 35.4321H465.365L474.365 10.5921Z" fill="white"/>
<path d="M358 90H584V94H358V90Z" fill="url(#paint0_linear)"/>
<defs>
<linearGradient id="paint0_linear" x1="358" y1="90" x2="361.514" y2="62.039" gradientUnits="userSpaceOnUse">
<stop stop-color="#D429FF"/>
<stop offset="0.378601" stop-color="#8A14FF"/>
<stop offset="1" stop-color="#3B0AFF"/>
</linearGradient>
</defs>
</svg>
