<svg width="939" height="439" viewBox="0 0 939 439" fill="none" xmlns="http://www.w3.org/2000/svg">
<rect x="7.5" y="7.5" width="924" height="341" rx="22.5" fill="url(#paint0_linear)" stroke="url(#paint1_linear)" stroke-width="15"/>
<rect x="626" y="20" width="293" height="316" rx="30" fill="white"/>
<path d="M62 68V99.1792H114.084V288H148.306V110.128L131.946 99.1792H148.306H200.391V68H62Z" fill="white"/>
<path d="M364.463 99.2473V68H239.625V288H364.463V256.753H273.772V183.234H361.86V152.066H273.772V110.192L257.369 99.2473H290.097H364.463Z" fill="white"/>
<path d="M469.907 167.611L572.132 68H526.576L438.538 155.794V68H404.41V288H438.538V201.792L420.962 190.054H445.553V190.134L527.049 288H572.762L469.907 167.611Z" fill="white"/>
<path fill-rule="evenodd" clip-rule="evenodd" d="M673.453 185.245H836.676L756.578 265.512L774.171 199.734H659L755.333 214.223L728.662 314L871.547 170.755H708.324L788.422 90.456L770.829 156.266H886L789.667 141.777L816.338 42L673.453 185.245Z" fill="#F68432"/>
<path d="M67.0102 438.466V399.143H53V392.534H88.5283V399.143H74.5851V438.466H67.0102Z" fill="white"/>
<path d="M98.3877 438.466V392.534H129.089V398.943H105.963V412.095H125.939V418.504H105.963V432.057H129.089V438.466H98.3877Z" fill="white"/>
<path d="M158.413 439C155.106 439 152.336 438.8 150.101 438.399C147.867 437.954 146.034 437.22 144.604 436.196C143.219 435.172 142.146 433.793 141.387 432.057C140.672 430.277 140.18 428.029 139.912 425.314C139.644 422.599 139.51 419.328 139.51 415.5C139.51 411.672 139.644 408.401 139.912 405.686C140.18 402.971 140.672 400.746 141.387 399.01C142.146 397.23 143.219 395.828 144.604 394.804C146.034 393.78 147.867 393.068 150.101 392.668C152.336 392.223 155.106 392 158.413 392C159.709 392 161.028 392.045 162.369 392.134C163.754 392.223 165.072 392.356 166.324 392.534C167.575 392.668 168.647 392.846 169.541 393.068V399.077C168.424 398.943 167.307 398.832 166.189 398.743C165.117 398.609 164.067 398.52 163.039 398.476C162.011 398.431 161.117 398.409 160.357 398.409C157.9 398.409 155.866 398.498 154.257 398.676C152.648 398.854 151.352 399.255 150.369 399.878C149.431 400.501 148.716 401.436 148.224 402.682C147.777 403.884 147.464 405.53 147.286 407.622C147.152 409.714 147.085 412.34 147.085 415.5C147.085 418.616 147.152 421.241 147.286 423.378C147.464 425.47 147.777 427.139 148.224 428.385C148.716 429.587 149.431 430.499 150.369 431.122C151.352 431.745 152.648 432.146 154.257 432.324C155.866 432.502 157.9 432.591 160.357 432.591C161.832 432.591 163.441 432.524 165.184 432.391C166.972 432.257 168.513 432.101 169.809 431.923V438.065C168.826 438.243 167.664 438.399 166.324 438.533C165.028 438.666 163.687 438.777 162.301 438.866C160.961 438.955 159.665 439 158.413 439Z" fill="white"/>
<path d="M181.49 438.466V392.534H189.065V412.028H210.382V392.534H217.956V438.466H210.382V418.638H189.065V438.466H181.49Z" fill="white"/>
<path d="M232.271 438.466V392.534H240.114L261.23 424.312H261.498V392.534H268.738V438.466H261.498L239.779 405.686H239.511V438.466H232.271Z" fill="white"/>
<path d="M300.682 439C297.018 439 294.001 438.8 291.633 438.399C289.264 437.954 287.387 437.22 286.002 436.196C284.616 435.172 283.611 433.77 282.985 431.99C282.36 430.21 281.957 427.984 281.779 425.314C281.6 422.599 281.51 419.328 281.51 415.5C281.51 411.672 281.6 408.423 281.779 405.753C281.957 403.038 282.36 400.79 282.985 399.01C283.611 397.23 284.616 395.828 286.002 394.804C287.387 393.78 289.264 393.068 291.633 392.668C294.001 392.223 297.018 392 300.682 392C304.347 392 307.363 392.223 309.732 392.668C312.145 393.068 314.045 393.78 315.43 394.804C316.815 395.828 317.821 397.23 318.447 399.01C319.117 400.79 319.541 403.038 319.72 405.753C319.899 408.423 319.988 411.672 319.988 415.5C319.988 419.328 319.899 422.599 319.72 425.314C319.541 427.984 319.117 430.21 318.447 431.99C317.821 433.77 316.815 435.172 315.43 436.196C314.045 437.22 312.145 437.954 309.732 438.399C307.363 438.8 304.347 439 300.682 439ZM300.682 432.591C302.917 432.591 304.749 432.524 306.179 432.391C307.654 432.257 308.794 431.923 309.598 431.389C310.447 430.855 311.073 429.987 311.475 428.786C311.877 427.539 312.123 425.87 312.212 423.778C312.346 421.642 312.413 418.883 312.413 415.5C312.413 412.117 312.346 409.38 312.212 407.288C312.123 405.152 311.877 403.483 311.475 402.281C311.073 401.035 310.447 400.145 309.598 399.611C308.794 399.077 307.654 398.743 306.179 398.609C304.749 398.476 302.917 398.409 300.682 398.409C298.493 398.409 296.683 398.476 295.253 398.609C293.822 398.743 292.683 399.077 291.834 399.611C290.985 400.145 290.359 401.035 289.957 402.281C289.599 403.483 289.354 405.152 289.219 407.288C289.13 409.38 289.085 412.117 289.085 415.5C289.085 418.883 289.13 421.642 289.219 423.778C289.354 425.87 289.599 427.539 289.957 428.786C290.359 429.987 290.985 430.855 291.834 431.389C292.683 431.923 293.822 432.257 295.253 432.391C296.683 432.524 298.493 432.591 300.682 432.591Z" fill="white"/>
<path d="M332.786 438.466V392.534H340.361V431.857H360.807V438.466H332.786Z" fill="white"/>
<path d="M388.563 439C384.899 439 381.882 438.8 379.513 438.399C377.145 437.954 375.268 437.22 373.883 436.196C372.497 435.172 371.492 433.77 370.866 431.99C370.24 430.21 369.838 427.984 369.659 425.314C369.481 422.599 369.391 419.328 369.391 415.5C369.391 411.672 369.481 408.423 369.659 405.753C369.838 403.038 370.24 400.79 370.866 399.01C371.492 397.23 372.497 395.828 373.883 394.804C375.268 393.78 377.145 393.068 379.513 392.668C381.882 392.223 384.899 392 388.563 392C392.228 392 395.244 392.223 397.613 392.668C400.026 393.068 401.925 393.78 403.311 394.804C404.696 395.828 405.702 397.23 406.327 399.01C406.998 400.79 407.422 403.038 407.601 405.753C407.78 408.423 407.869 411.672 407.869 415.5C407.869 419.328 407.78 422.599 407.601 425.314C407.422 427.984 406.998 430.21 406.327 431.99C405.702 433.77 404.696 435.172 403.311 436.196C401.925 437.22 400.026 437.954 397.613 438.399C395.244 438.8 392.228 439 388.563 439ZM388.563 432.591C390.798 432.591 392.63 432.524 394.06 432.391C395.535 432.257 396.674 431.923 397.479 431.389C398.328 430.855 398.953 429.987 399.356 428.786C399.758 427.539 400.004 425.87 400.093 423.778C400.227 421.642 400.294 418.883 400.294 415.5C400.294 412.117 400.227 409.38 400.093 407.288C400.004 405.152 399.758 403.483 399.356 402.281C398.953 401.035 398.328 400.145 397.479 399.611C396.674 399.077 395.535 398.743 394.06 398.609C392.63 398.476 390.798 398.409 388.563 398.409C386.373 398.409 384.563 398.476 383.133 398.609C381.703 398.743 380.564 399.077 379.715 399.611C378.865 400.145 378.24 401.035 377.838 402.281C377.48 403.483 377.234 405.152 377.1 407.288C377.011 409.38 376.966 412.117 376.966 415.5C376.966 418.883 377.011 421.642 377.1 423.778C377.234 425.87 377.48 427.539 377.838 428.786C378.24 429.987 378.865 430.855 379.715 431.389C380.564 431.923 381.703 432.257 383.133 432.391C384.563 432.524 386.373 432.591 388.563 432.591Z" fill="white"/>
<path d="M439.034 439C435.727 439 432.912 438.8 430.588 438.399C428.309 437.954 426.41 437.22 424.89 436.196C423.371 435.172 422.186 433.77 421.337 431.99C420.533 430.21 419.952 427.984 419.594 425.314C419.282 422.599 419.125 419.328 419.125 415.5C419.125 411.672 419.282 408.423 419.594 405.753C419.952 403.038 420.555 400.79 421.404 399.01C422.253 397.23 423.438 395.828 424.957 394.804C426.477 393.78 428.376 393.068 430.655 392.668C432.979 392.223 435.772 392 439.034 392C440.509 392 442.118 392.067 443.861 392.2C445.649 392.334 447.414 392.512 449.157 392.734C450.9 392.912 452.486 393.135 453.916 393.402V399.411C452.397 399.188 450.9 399.01 449.425 398.876C447.95 398.743 446.587 398.632 445.336 398.543C444.129 398.454 443.124 398.409 442.319 398.409C439.638 398.409 437.381 398.476 435.549 398.609C433.716 398.698 432.219 399.01 431.057 399.544C429.895 400.078 429.002 400.968 428.376 402.214C427.75 403.416 427.303 405.085 427.035 407.222C426.812 409.358 426.7 412.117 426.7 415.5C426.7 418.482 426.767 420.997 426.901 423.044C427.08 425.047 427.415 426.716 427.907 428.051C428.443 429.342 429.158 430.321 430.052 430.989C430.99 431.656 432.197 432.124 433.672 432.391C435.191 432.658 437.046 432.791 439.236 432.791C440.085 432.791 440.978 432.769 441.917 432.724C442.9 432.68 443.816 432.635 444.665 432.591C445.514 432.502 446.229 432.413 446.81 432.324V419.305H437.761V413.03H454.117V437.598C452.598 437.865 450.922 438.11 449.09 438.332C447.302 438.51 445.537 438.666 443.794 438.8C442.051 438.933 440.465 439 439.034 439Z" fill="white"/>
<path d="M478.308 438.466V421.575L462.019 392.534H470.063L482.062 414.098H482.531L494.397 392.534H502.24L485.883 421.575V438.466H478.308Z" fill="white"/>
<path d="M543.855 439C542.201 439 540.369 438.955 538.358 438.866C536.391 438.777 534.447 438.644 532.526 438.466C530.649 438.332 528.928 438.177 527.364 437.999V431.79C528.973 431.923 530.649 432.057 532.392 432.19C534.179 432.324 535.877 432.435 537.486 432.524C539.095 432.569 540.48 432.591 541.642 432.591C544.011 432.591 545.866 432.48 547.206 432.257C548.547 432.035 549.619 431.679 550.424 431.189C550.96 430.833 551.34 430.388 551.564 429.854C551.832 429.32 551.988 428.696 552.033 427.984C552.122 427.228 552.167 426.404 552.167 425.514C552.167 424.312 552.122 423.311 552.033 422.51C551.943 421.709 551.742 421.086 551.429 420.641C551.117 420.196 550.625 419.884 549.955 419.706C549.284 419.483 548.413 419.305 547.34 419.172L536.347 417.903C534.202 417.636 532.436 417.191 531.051 416.568C529.71 415.901 528.66 415.033 527.9 413.964C527.185 412.896 526.694 411.628 526.426 410.159C526.157 408.69 526.023 407.066 526.023 405.286C526.023 402.304 526.426 399.945 527.23 398.209C528.034 396.473 529.174 395.16 530.649 394.27C532.168 393.335 533.956 392.734 536.011 392.467C538.067 392.156 540.346 392 542.849 392C544.592 392 546.379 392.067 548.212 392.2C550.044 392.289 551.765 392.423 553.373 392.601C555.027 392.734 556.39 392.935 557.463 393.202V399.277C556.345 399.099 555.027 398.943 553.508 398.81C552.033 398.676 550.491 398.587 548.882 398.543C547.273 398.454 545.776 398.409 544.391 398.409C542.067 398.409 540.19 398.52 538.76 398.743C537.375 398.921 536.302 399.232 535.542 399.678C534.648 400.167 534.112 400.857 533.933 401.747C533.755 402.593 533.665 403.661 533.665 404.952C533.665 406.465 533.755 407.644 533.933 408.49C534.157 409.291 534.626 409.848 535.341 410.159C536.101 410.471 537.24 410.715 538.76 410.893L549.754 412.162C551.139 412.295 552.39 412.518 553.508 412.83C554.625 413.097 555.608 413.564 556.457 414.232C557.351 414.899 558.044 415.856 558.535 417.102C558.848 417.725 559.071 418.437 559.205 419.239C559.384 420.04 559.518 420.93 559.608 421.909C559.742 422.844 559.809 423.912 559.809 425.114C559.809 427.651 559.541 429.765 559.004 431.456C558.513 433.147 557.798 434.505 556.859 435.528C555.965 436.508 554.848 437.264 553.508 437.798C552.167 438.288 550.692 438.599 549.083 438.733C547.474 438.911 545.732 439 543.855 439Z" fill="white"/>
<path d="M589.641 439C585.976 439 582.96 438.8 580.591 438.399C578.223 437.954 576.346 437.22 574.96 436.196C573.575 435.172 572.569 433.77 571.944 431.99C571.318 430.21 570.916 427.984 570.737 425.314C570.558 422.599 570.469 419.328 570.469 415.5C570.469 411.672 570.558 408.423 570.737 405.753C570.916 403.038 571.318 400.79 571.944 399.01C572.569 397.23 573.575 395.828 574.96 394.804C576.346 393.78 578.223 393.068 580.591 392.668C582.96 392.223 585.976 392 589.641 392C593.305 392 596.322 392.223 598.69 392.668C601.104 393.068 603.003 393.78 604.388 394.804C605.774 395.828 606.779 397.23 607.405 399.01C608.075 400.79 608.5 403.038 608.679 405.753C608.857 408.423 608.947 411.672 608.947 415.5C608.947 419.328 608.857 422.599 608.679 425.314C608.5 427.984 608.075 430.21 607.405 431.99C606.779 433.77 605.774 435.172 604.388 436.196C603.003 437.22 601.104 437.954 598.69 438.399C596.322 438.8 593.305 439 589.641 439ZM589.641 432.591C591.875 432.591 593.708 432.524 595.138 432.391C596.612 432.257 597.752 431.923 598.556 431.389C599.405 430.855 600.031 429.987 600.433 428.786C600.836 427.539 601.081 425.87 601.171 423.778C601.305 421.642 601.372 418.883 601.372 415.5C601.372 412.117 601.305 409.38 601.171 407.288C601.081 405.152 600.836 403.483 600.433 402.281C600.031 401.035 599.405 400.145 598.556 399.611C597.752 399.077 596.612 398.743 595.138 398.609C593.708 398.476 591.875 398.409 589.641 398.409C587.451 398.409 585.641 398.476 584.211 398.609C582.781 398.743 581.641 399.077 580.792 399.611C579.943 400.145 579.317 401.035 578.915 402.281C578.558 403.483 578.312 405.152 578.178 407.288C578.088 409.38 578.044 412.117 578.044 415.5C578.044 418.883 578.088 421.642 578.178 423.778C578.312 425.87 578.558 427.539 578.915 428.786C579.317 429.987 579.943 430.855 580.792 431.389C581.641 431.923 582.781 432.257 584.211 432.391C585.641 432.524 587.451 432.591 589.641 432.591Z" fill="white"/>
<path d="M621.745 438.466V392.534H629.319V431.857H649.765V438.466H621.745Z" fill="white"/>
<path d="M677.32 439C674.147 439 671.488 438.822 669.343 438.466C667.198 438.065 665.455 437.42 664.115 436.53C662.819 435.64 661.813 434.416 661.098 432.858C660.428 431.256 659.958 429.253 659.69 426.849C659.467 424.446 659.355 421.553 659.355 418.17V392.534H666.93V420.507C666.93 423.089 667.019 425.18 667.198 426.783C667.377 428.385 667.779 429.609 668.405 430.455C669.03 431.3 670.058 431.879 671.488 432.19C672.918 432.457 674.862 432.591 677.32 432.591C679.823 432.591 681.767 432.457 683.152 432.19C684.538 431.879 685.543 431.3 686.169 430.455C686.839 429.609 687.242 428.385 687.376 426.783C687.554 425.18 687.644 423.089 687.644 420.507V392.534H695.219V418.17C695.219 421.553 695.085 424.446 694.816 426.849C694.593 429.253 694.146 431.256 693.476 432.858C692.805 434.416 691.8 435.64 690.459 436.53C689.163 437.42 687.443 438.065 685.298 438.466C683.152 438.822 680.493 439 677.32 439Z" fill="white"/>
<path d="M718.621 438.466V399.143H704.61V392.534H740.139V399.143H726.195V438.466H718.621Z" fill="white"/>
<path d="M749.998 438.466V392.534H757.573V438.466H749.998Z" fill="white"/>
<path d="M789.475 439C785.81 439 782.793 438.8 780.425 438.399C778.056 437.954 776.179 437.22 774.794 436.196C773.409 435.172 772.403 433.77 771.777 431.99C771.152 430.21 770.75 427.984 770.571 425.314C770.392 422.599 770.303 419.328 770.303 415.5C770.303 411.672 770.392 408.423 770.571 405.753C770.75 403.038 771.152 400.79 771.777 399.01C772.403 397.23 773.409 395.828 774.794 394.804C776.179 393.78 778.056 393.068 780.425 392.668C782.793 392.223 785.81 392 789.475 392C793.139 392 796.156 392.223 798.524 392.668C800.937 393.068 802.837 393.78 804.222 394.804C805.608 395.828 806.613 397.23 807.239 399.01C807.909 400.79 808.334 403.038 808.512 405.753C808.691 408.423 808.781 411.672 808.781 415.5C808.781 419.328 808.691 422.599 808.512 425.314C808.334 427.984 807.909 430.21 807.239 431.99C806.613 433.77 805.608 435.172 804.222 436.196C802.837 437.22 800.937 437.954 798.524 438.399C796.156 438.8 793.139 439 789.475 439ZM789.475 432.591C791.709 432.591 793.541 432.524 794.971 432.391C796.446 432.257 797.586 431.923 798.39 431.389C799.239 430.855 799.865 429.987 800.267 428.786C800.669 427.539 800.915 425.87 801.004 423.778C801.139 421.642 801.206 418.883 801.206 415.5C801.206 412.117 801.139 409.38 801.004 407.288C800.915 405.152 800.669 403.483 800.267 402.281C799.865 401.035 799.239 400.145 798.39 399.611C797.586 399.077 796.446 398.743 794.971 398.609C793.541 398.476 791.709 398.409 789.475 398.409C787.285 398.409 785.475 398.476 784.045 398.609C782.615 398.743 781.475 399.077 780.626 399.611C779.777 400.145 779.151 401.035 778.749 402.281C778.391 403.483 778.146 405.152 778.012 407.288C777.922 409.38 777.878 412.117 777.878 415.5C777.878 418.883 777.922 421.642 778.012 423.778C778.146 425.87 778.391 427.539 778.749 428.786C779.151 429.987 779.777 430.855 780.626 431.389C781.475 431.923 782.615 432.257 784.045 432.391C785.475 432.524 787.285 432.591 789.475 432.591Z" fill="white"/>
<path d="M821.578 438.466V392.534H829.421L850.537 424.312H850.805V392.534H858.045V438.466H850.805L829.086 405.686H828.818V438.466H821.578Z" fill="white"/>
<path d="M888.046 439C886.392 439 884.56 438.955 882.549 438.866C880.583 438.777 878.639 438.644 876.717 438.466C874.84 438.332 873.119 438.177 871.555 437.999V431.79C873.164 431.923 874.84 432.057 876.583 432.19C878.37 432.324 880.069 432.435 881.677 432.524C883.286 432.569 884.672 432.591 885.834 432.591C888.202 432.591 890.057 432.48 891.398 432.257C892.738 432.035 893.811 431.679 894.615 431.189C895.151 430.833 895.531 430.388 895.755 429.854C896.023 429.32 896.179 428.696 896.224 427.984C896.313 427.228 896.358 426.404 896.358 425.514C896.358 424.312 896.313 423.311 896.224 422.51C896.135 421.709 895.934 421.086 895.621 420.641C895.308 420.196 894.816 419.884 894.146 419.706C893.476 419.483 892.604 419.305 891.532 419.172L880.538 417.903C878.393 417.636 876.628 417.191 875.242 416.568C873.901 415.901 872.851 415.033 872.092 413.964C871.376 412.896 870.885 411.628 870.617 410.159C870.349 408.69 870.215 407.066 870.215 405.286C870.215 402.304 870.617 399.945 871.421 398.209C872.226 396.473 873.365 395.16 874.84 394.27C876.359 393.335 878.147 392.734 880.203 392.467C882.258 392.156 884.538 392 887.04 392C888.783 392 890.571 392.067 892.403 392.2C894.235 392.289 895.956 392.423 897.565 392.601C899.218 392.734 900.581 392.935 901.654 393.202V399.277C900.536 399.099 899.218 398.943 897.699 398.81C896.224 398.676 894.682 398.587 893.073 398.543C891.465 398.454 889.967 398.409 888.582 398.409C886.258 398.409 884.381 398.52 882.951 398.743C881.566 398.921 880.493 399.232 879.733 399.678C878.84 400.167 878.303 400.857 878.125 401.747C877.946 402.593 877.857 403.661 877.857 404.952C877.857 406.465 877.946 407.644 878.125 408.49C878.348 409.291 878.817 409.848 879.532 410.159C880.292 410.471 881.432 410.715 882.951 410.893L893.945 412.162C895.33 412.295 896.582 412.518 897.699 412.83C898.816 413.097 899.799 413.564 900.648 414.232C901.542 414.899 902.235 415.856 902.726 417.102C903.039 417.725 903.263 418.437 903.397 419.239C903.575 420.04 903.709 420.93 903.799 421.909C903.933 422.844 904 423.912 904 425.114C904 427.651 903.732 429.765 903.196 431.456C902.704 433.147 901.989 434.505 901.05 435.528C900.157 436.508 899.039 437.264 897.699 437.798C896.358 438.288 894.883 438.599 893.274 438.733C891.666 438.911 889.923 439 888.046 439Z" fill="white"/>
<defs>
<linearGradient id="paint0_linear" x1="653.958" y1="-2.48583e-06" x2="632.529" y2="392.927" gradientUnits="userSpaceOnUse">
<stop stop-color="#29CDFF"/>
<stop offset="0.378601" stop-color="#148EFF"/>
<stop offset="1" stop-color="#0A60FF"/>
</linearGradient>
<linearGradient id="paint1_linear" x1="653.958" y1="-2.48583e-06" x2="632.529" y2="392.927" gradientUnits="userSpaceOnUse">
<stop stop-color="#29CDFF"/>
<stop offset="0.378601" stop-color="#148EFF"/>
<stop offset="1" stop-color="#0A60FF"/>
</linearGradient>
</defs>
</svg>
