<svg width="211" height="56" viewBox="0 0 211 56" fill="none" xmlns="http://www.w3.org/2000/svg">
<g clip-path="url(#clip0)">
<path d="M56.0002 30.545L52.1458 34.3993L50.91 35.6352L45.8198 40.7254L44.9431 41.6021L40.7296 45.8195L37.7442 48.801L35.6355 50.9097L30.5453 55.9999L25.4551 50.9097L30.5453 45.8195L35.6355 40.7254L37.7442 38.6167L40.7296 35.6352L44.9431 31.4178L45.8198 30.545L44.9431 29.6722L35.6355 20.3646L37.7442 18.252L40.7257 15.2705L44.9431 19.4879L45.8198 20.3646L50.91 25.4548L52.1458 26.6906L56.0002 30.545Z" fill="url(#paint0_linear)"/>
<path d="M35.6353 30.5451L30.5451 35.6353L23.3462 42.8342L20.3647 45.8196L0 25.4549L1.74566 23.7092L5.09021 20.3647L20.3647 35.6353L23.3462 32.6538L25.4549 30.5451L10.1804 15.2706L15.2745 10.1804L16.1434 9.30759L23.3462 2.10869L25.4549 0L35.6353 10.1804L30.5451 15.2706L25.4549 10.1804L23.3462 12.2891L20.3647 15.2706L35.6353 30.5451Z" fill="url(#paint1_linear)"/>
</g>
<path d="M94.0814 20.4297L89.6814 20.3997C89.6814 19.0497 87.8414 17.6697 85.8814 17.6697C84.6814 17.6697 83.6814 17.9997 82.8914 18.6597C82.1014 19.3097 81.7014 20.1197 81.7014 21.0997C81.7014 22.4497 82.7414 23.5398 84.8214 24.3698L87.6814 25.4998C90.0114 26.4098 91.7114 27.5197 92.7914 28.8297C93.8714 30.1397 94.4114 31.7497 94.4114 33.6497C94.4114 36.1997 93.5314 38.3097 91.7714 39.9697C90.0014 41.6497 87.8014 42.4797 85.1714 42.4797C82.6814 42.4797 80.6214 41.7697 79.0014 40.3397C77.4014 38.9097 75.8514 36.4498 76.0114 33.3798L80.4014 33.3897C80.6014 35.0197 80.9414 36.1497 81.4414 36.7697C82.3314 37.9697 83.6314 38.5698 85.3414 38.5698C86.6914 38.5698 87.8114 38.1298 88.7014 37.2598C89.5914 36.3898 90.0414 35.2798 90.0414 33.9398C90.0414 33.3998 89.9614 32.9097 89.8114 32.4597C89.6614 32.0097 89.4114 31.5997 89.0914 31.2197C88.7614 30.8397 88.3414 30.4897 87.8214 30.1597C87.3014 29.8297 86.6814 29.5097 85.9614 29.2197L83.1914 28.1097C79.2614 26.5097 77.3014 24.1598 77.3014 21.0698C77.3014 18.9898 78.1214 17.2397 79.7714 15.8397C81.4214 14.4297 83.4714 13.7197 85.9214 13.7197C91.0014 13.7197 94.0814 16.9697 94.0814 20.4297Z" fill="white"/>
<path d="M109.411 27.97C109.411 24.07 110.891 20.71 113.851 17.91C116.801 15.11 120.341 13.71 124.481 13.71C128.571 13.71 132.081 15.12 135.001 17.95C137.931 20.78 139.401 24.17 139.401 28.14C139.401 32.13 137.931 35.51 134.981 38.29C132.021 41.08 128.441 42.48 124.261 42.48C120.551 42.48 117.231 41.2399 114.281 38.7599C111.041 35.9999 109.411 32.41 109.411 27.97ZM113.781 28.02C113.781 31.08 114.851 33.61 116.981 35.58C119.101 37.56 121.551 38.54 124.321 38.54C127.331 38.54 129.871 37.53 131.941 35.52C134.011 33.48 135.041 31.01 135.041 28.08C135.041 25.12 134.021 22.64 131.971 20.64C129.941 18.63 127.421 17.6199 124.421 17.6199C121.431 17.6199 118.911 18.63 116.851 20.64C114.811 22.64 113.781 25.1 113.781 28.02Z" fill="white"/>
<path d="M158.731 14.7502V38.5502H167.171V42.4802H154.401V14.7402H158.731V14.7502Z" fill="white"/>
<path d="M196.371 13L182.171 42.48H186.831L189.431 37L187.541 35.74H191.691H202.321L205.331 42.48H210.071L196.371 13ZM191.841 31.81L196.301 22.3799L200.561 31.81H191.841Z" fill="white"/>
<defs>
<linearGradient id="paint0_linear" x1="50.875" y1="15.3134" x2="16.0689" y2="41.6081" gradientUnits="userSpaceOnUse">
<stop offset="0.0416667" stop-color="#00F299"/>
<stop offset="0.947917" stop-color="#D119FF"/>
</linearGradient>
<linearGradient id="paint1_linear" x1="29.6561" y1="0.0482132" x2="-9.86681" y2="31.0122" gradientUnits="userSpaceOnUse">
<stop offset="0.0416667" stop-color="#00F299"/>
<stop offset="0.947917" stop-color="#D119FF"/>
</linearGradient>
<clipPath id="clip0">
<rect width="56" height="56" fill="white"/>
</clipPath>
</defs>
</svg>
