<svg width="140" height="45" viewBox="0 0 140 45" fill="none" xmlns="http://www.w3.org/2000/svg">
<path d="M47.4686 23.3224H52.733C53.4723 23.3224 54.0718 23.9263 54.0718 24.6713C54.0718 25.4163 53.4723 26.0203 52.733 26.0203H46.3833C46.2842 26.0203 46.1883 26.056 46.113 26.1209L44.1958 27.7735C43.9023 28.0264 44.0799 28.5107 44.4661 28.5107H52.415C52.4182 28.5107 52.4207 28.5081 52.4207 28.5048C52.4207 28.5013 52.4239 28.4985 52.4271 28.4988C52.5274 28.5067 52.6282 28.5107 52.7304 28.5107C54.8392 28.5107 56.5484 26.7918 56.5484 24.6713C56.5484 22.6577 55.0072 21.0061 53.0458 20.8449C53.0426 20.8446 53.0401 20.8418 53.0401 20.8384C53.0401 20.8348 53.0375 20.8319 53.0337 20.8319H47.3623C46.6228 20.8319 46.0233 20.228 46.0233 19.483C46.0233 18.7379 46.6228 18.1339 47.3623 18.1339H53.7034C53.8075 18.1339 53.9084 18.0944 53.985 18.0232L55.765 16.3706C56.044 16.1121 55.8621 15.6436 55.4834 15.6436H47.4686C47.4682 15.6436 47.468 15.6439 47.468 15.6443C47.468 15.6446 47.4677 15.6449 47.4673 15.6449C47.4332 15.644 47.399 15.6436 47.3648 15.6436C45.2562 15.6436 43.5469 17.3625 43.5469 19.483C43.5469 21.6034 45.2562 23.3224 47.3648 23.3224C47.399 23.3224 47.4332 23.3219 47.4673 23.321C47.4677 23.321 47.468 23.3213 47.468 23.3217C47.468 23.322 47.4682 23.3224 47.4686 23.3224Z" fill="white"/>
<path d="M78.1318 15.6436C77.9013 15.6436 77.7148 15.8311 77.7148 16.0625V28.0918C77.7148 28.3232 77.9013 28.5107 78.1318 28.5107H87.7713C87.8862 28.5107 87.9966 28.4628 88.0752 28.3784L89.2819 27.0844C89.5315 26.8169 89.3425 26.379 88.978 26.379H80.5611C80.3313 26.379 80.1448 26.1914 80.1448 25.96V16.0625C80.1448 15.8311 79.9578 15.6436 79.7279 15.6436H78.1318Z" fill="white"/>
<path fill-rule="evenodd" clip-rule="evenodd" d="M62.6914 15.6436C62.6908 15.6436 62.6901 15.6441 62.6901 15.6447C62.6901 15.6453 62.6895 15.6458 62.6889 15.6458C61.4566 15.6992 60.4677 16.6906 60.414 17.9254C60.414 17.9259 60.4134 17.9264 60.4134 17.9264C60.4127 17.9264 60.4127 17.9266 60.4121 17.9268C60.4121 17.927 60.4121 17.9273 60.4121 17.9276V26.0192C60.4121 26.0198 60.4127 26.0203 60.4127 26.0203C60.4134 26.0203 60.414 26.0208 60.414 26.0215C60.4127 26.0555 60.4121 26.0897 60.4121 26.1241C60.4121 27.4071 61.4222 28.4536 62.6889 28.5085C62.6895 28.5085 62.6901 28.509 62.6901 28.5096V28.5101V28.5104C62.6908 28.5106 62.6908 28.5107 62.6914 28.5107H71.4377C71.4384 28.5107 71.439 28.5102 71.439 28.5096L71.4396 28.509V28.5086L71.4403 28.5085C72.707 28.4536 73.717 27.4071 73.717 26.1241C73.717 26.0897 73.7164 26.0555 73.7151 26.0215C73.7151 26.0208 73.7158 26.0203 73.7164 26.0203C73.7164 26.0203 73.717 26.0198 73.717 26.0192V17.9276C73.717 17.927 73.7164 17.9264 73.7158 17.9264C73.7151 17.9264 73.7151 17.9259 73.7151 17.9254C73.6615 16.6906 72.6725 15.6992 71.4403 15.6458C71.4396 15.6458 71.439 15.6453 71.439 15.6447C71.439 15.6441 71.4384 15.6436 71.4377 15.6436H62.6914ZM64.3214 17.9264L64.3208 17.9267V17.9271C64.3208 17.9275 64.3208 17.9278 64.3201 17.9278C63.5502 17.9614 62.9315 18.5851 62.8983 19.3618C62.8983 19.3622 62.8983 19.3625 62.8976 19.3625C62.8976 19.3625 62.897 19.3628 62.897 19.3632V24.4531C62.897 24.4535 62.8976 24.4538 62.8976 24.4538C62.8983 24.4538 62.8983 24.4541 62.8983 24.4545C62.8976 24.4759 62.897 24.4974 62.897 24.519C62.897 25.3261 63.5285 25.9844 64.3201 26.0189C64.3208 26.0189 64.3208 26.0192 64.3208 26.0196V26.02L64.3214 26.0202V26.0203H69.8077L69.8084 26.0199V26.0196C69.8084 26.0192 69.8084 26.0189 69.809 26.0189C70.6007 25.9844 71.2321 25.3261 71.2321 24.519C71.2321 24.4974 71.2315 24.4759 71.2309 24.4545V24.4543V24.4541L71.2315 24.4538C71.2315 24.4538 71.2321 24.4535 71.2321 24.4531V19.3632C71.2321 19.3628 71.2315 19.3625 71.2315 19.3625C71.2309 19.3625 71.2309 19.3622 71.2309 19.3618C71.1977 18.5851 70.579 17.9614 69.809 17.9278C69.8084 17.9278 69.8084 17.9275 69.8084 17.9271V17.9268L69.8077 17.9266V17.9264H64.3214Z" fill="white"/>
<path fill-rule="evenodd" clip-rule="evenodd" d="M103.299 28.0918C103.299 28.3232 103.484 28.5107 103.712 28.5107H105.347C105.575 28.5107 105.76 28.3232 105.76 28.0918V18.135C105.76 18.1345 105.759 18.1339 105.759 18.1339V18.1338L105.758 18.1337C105.758 18.1335 105.758 18.1332 105.758 18.1329C105.759 18.0988 105.76 18.0646 105.76 18.0302C105.76 16.7472 104.759 15.7007 103.505 15.6458C103.504 15.6458 103.503 15.6453 103.503 15.6447C103.503 15.6441 103.503 15.6436 103.502 15.6436H95.1051C95.1045 15.6436 95.1039 15.6441 95.1039 15.6446C95.1039 15.6453 95.1032 15.6457 95.1026 15.6457C95.0694 15.6443 95.0355 15.6436 95.0017 15.6436C93.6986 15.6436 92.6426 16.7121 92.6426 18.0302C92.6426 18.0646 92.6432 18.0988 92.6445 18.1329C92.6445 18.1334 92.6445 18.1339 92.6439 18.1339C92.6432 18.1339 92.6426 18.1345 92.6426 18.135V28.0918C92.6426 28.3232 92.8277 28.5107 93.0557 28.5107H94.6908C94.9187 28.5107 95.1039 28.3232 95.1039 28.0918V23.9488C95.1039 23.7174 95.289 23.5299 95.5176 23.5299H102.885C103.113 23.5299 103.299 23.7174 103.299 23.9488V28.0918ZM95.1039 21.2431V19.1717C95.1039 18.3693 95.7468 17.7189 96.5398 17.7189H101.863C102.656 17.7189 103.299 18.3693 103.299 19.1717V21.2431C103.299 21.4745 103.113 21.6621 102.885 21.6621H95.5176C95.289 21.6621 95.1039 21.4745 95.1039 21.2431Z" fill="white"/>
<path fill-rule="evenodd" clip-rule="evenodd" d="M137.808 28.5107C137.577 28.5107 137.39 28.3232 137.39 28.0918V23.9488C137.39 23.7174 137.204 23.5299 136.973 23.5299H129.524C129.293 23.5299 129.107 23.7174 129.107 23.9488V28.0918C129.107 28.3232 128.92 28.5107 128.689 28.5107H127.039C126.808 28.5107 126.621 28.3232 126.621 28.0918V18.135V18.1348L126.622 18.1344C126.622 18.1341 126.622 18.1339 126.622 18.1339C126.623 18.1339 126.624 18.1334 126.624 18.1329C126.622 18.0988 126.621 18.0646 126.621 18.0302C126.621 16.7121 127.687 15.6436 129.003 15.6436C129.037 15.6436 129.072 15.6443 129.105 15.6457C129.106 15.6457 129.107 15.6453 129.107 15.6446C129.107 15.6441 129.107 15.6436 129.107 15.6436H137.596C137.597 15.6436 137.598 15.6441 137.598 15.6447C137.598 15.6453 137.598 15.6458 137.598 15.6458C138.865 15.7007 139.876 16.7472 139.876 18.0302C139.876 18.0646 139.874 18.0988 139.873 18.1329C139.873 18.1334 139.874 18.1339 139.874 18.1339C139.874 18.1339 139.875 18.1341 139.875 18.1343C139.875 18.1345 139.876 18.1348 139.876 18.135V28.0918C139.876 28.3232 139.689 28.5107 139.458 28.5107H137.808ZM129.107 19.1717V21.2431C129.107 21.4745 129.293 21.6621 129.524 21.6621H136.973C137.204 21.6621 137.39 21.4745 137.39 21.2431V19.1717C137.39 18.3693 136.741 17.7189 135.941 17.7189H130.556C129.755 17.7189 129.107 18.3693 129.107 19.1717Z" fill="white"/>
<path d="M111.912 15.6436C112.033 15.6436 112.148 15.6973 112.227 15.7907L119.559 24.5311C119.808 24.8275 120.287 24.6488 120.287 24.2593V16.0625C120.287 15.8311 120.471 15.6436 120.7 15.6436H122.335C122.563 15.6436 122.748 15.8311 122.748 16.0625V28.0918C122.748 28.3232 122.563 28.5107 122.335 28.5107H120.302C120.293 28.5107 120.287 28.5037 120.287 28.4951C120.287 28.4913 120.285 28.4877 120.283 28.4848L112.828 19.8053C112.576 19.5137 112.103 19.6938 112.103 20.0808V28.0918C112.103 28.3232 111.918 28.5107 111.69 28.5107H110.044C109.816 28.5107 109.631 28.3232 109.631 28.0918V16.0625C109.631 15.8311 109.816 15.6436 110.044 15.6436H111.912Z" fill="white"/>
<path d="M5.53946 28.9529C5.74332 28.7492 6.01971 28.6348 6.30792 28.6348H32.8973C33.3817 28.6348 33.6242 29.2205 33.2815 29.5628L28.0275 34.8127C27.8237 35.0164 27.5473 35.1308 27.2591 35.1308H0.669648C0.18531 35.1308 -0.0571787 34.5451 0.285421 34.2027L5.53946 28.9529Z" fill="url(#paint0_linear)"/>
<path d="M5.53946 9.34061C5.74332 9.13687 6.01971 9.02246 6.30792 9.02246H32.8973C33.3817 9.02246 33.6242 9.60819 33.2815 9.9506L28.0275 15.2004C27.8237 15.4041 27.5473 15.5185 27.2591 15.5185H0.669648C0.18531 15.5185 -0.0571787 14.9328 0.285421 14.5904L5.53946 9.34061Z" fill="url(#paint1_linear)"/>
<path d="M28.0275 19.0837C27.8237 18.88 27.5473 18.7656 27.2591 18.7656H0.669648C0.18531 18.7656 -0.0571787 19.3513 0.285421 19.6937L5.53946 24.9435C5.74332 25.1472 6.01971 25.2617 6.30792 25.2617H32.8973C33.3817 25.2617 33.6242 24.6759 33.2815 24.3335L28.0275 19.0837Z" fill="url(#paint2_linear)"/>
<defs>
<linearGradient id="paint0_linear" x1="22.6493" y1="1.85982" x2="4.24708" y2="37.1074" gradientUnits="userSpaceOnUse">
<stop stop-color="#00FFA3"/>
<stop offset="1" stop-color="#DC1FFF"/>
</linearGradient>
<linearGradient id="paint1_linear" x1="22.6493" y1="1.86061" x2="4.24709" y2="37.1081" gradientUnits="userSpaceOnUse">
<stop stop-color="#00FFA3"/>
<stop offset="1" stop-color="#DC1FFF"/>
</linearGradient>
<linearGradient id="paint2_linear" x1="22.6493" y1="1.85969" x2="4.2471" y2="37.1072" gradientUnits="userSpaceOnUse">
<stop stop-color="#00FFA3"/>
<stop offset="1" stop-color="#DC1FFF"/>
</linearGradient>
</defs>
</svg>
