<svg width="24" height="24" viewBox="0 0 24 24" fill="none" xmlns="http://www.w3.org/2000/svg">
<g clip-path="url(#clip0)">
<path d="M23.597 20.1342C23.1716 19.839 22.5875 19.9445 22.2923 20.3698C21.1042 22.0812 17.6463 22.0822 16.4576 20.3698C16.2824 20.1174 15.9948 19.9669 15.6875 19.9669C15.3802 19.9669 15.0925 20.1174 14.9173 20.3698C13.7293 22.0812 10.2713 22.0822 9.08265 20.3698C8.90743 20.1174 8.61976 19.9669 8.3125 19.9669C8.00523 19.9669 7.71752 20.1174 7.54235 20.3698C6.35431 22.0813 2.8964 22.0822 1.70771 20.3698C1.41244 19.9444 0.828245 19.839 0.402998 20.1342C-0.0223437 20.4295 -0.127812 21.0135 0.167452 21.4389C1.8886 23.9184 6.04953 24.1868 8.3125 22.2803C10.3026 23.9568 13.7207 23.9372 15.6874 22.2803C17.9498 24.1863 22.1128 23.9161 23.8324 21.4389C24.1277 21.0135 24.0222 20.4295 23.597 20.1342Z" fill="white"/>
<path d="M4.59374 14.8115C5.11152 14.8115 5.53124 14.3918 5.53124 13.874V12.4679H13.9686V13.874C13.9686 14.3918 14.3884 14.8115 14.9061 14.8115C15.4239 14.8115 15.8436 14.3918 15.8436 13.874V3.65604C15.8436 2.93239 16.4324 2.34365 17.1561 2.34365C17.8798 2.34365 18.4686 2.93239 18.4686 3.65604C18.4686 4.17378 18.8883 4.59349 19.4061 4.59349C19.9239 4.59349 20.3436 4.17378 20.3436 3.65604C20.3436 1.89857 18.9137 0.46875 17.1562 0.46875C15.3986 0.46875 13.9687 1.89857 13.9687 3.65604V6.37459H5.53124V3.65604C5.53124 2.93239 6.11999 2.34365 6.84373 2.34365C7.56748 2.34365 8.15622 2.93239 8.15622 3.65604C8.15622 4.17378 8.57594 4.59349 9.09372 4.59349C9.6115 4.59349 10.0312 4.17378 10.0312 3.65604C10.0312 1.89857 8.6013 0.46875 6.84373 0.46875C5.08616 0.46875 3.65625 1.89857 3.65625 3.65604V13.8741C3.65625 14.3918 4.07597 14.8115 4.59374 14.8115ZM5.53124 8.24944H13.9686V10.593H5.53124V8.24944Z" fill="white"/>
<path d="M8.31264 18.0625C9.25646 18.8577 10.5655 19.3114 12.0001 19.3114C13.4347 19.3114 14.7437 18.8577 15.6875 18.0625C17.9499 19.9685 22.1129 19.6983 23.8325 17.2211C24.1278 16.7958 24.0223 16.2116 23.597 15.9164C23.1716 15.6213 22.5875 15.7267 22.2923 16.152C21.1042 17.8634 17.6463 17.8644 16.4576 16.152C16.2824 15.8996 15.9947 15.7491 15.6875 15.7491C15.3802 15.7491 15.0925 15.8996 14.9173 16.152C13.7293 17.8634 10.2713 17.8644 9.08265 16.152C8.90743 15.8996 8.61976 15.7491 8.3125 15.7491C8.00523 15.7491 7.71752 15.8997 7.54235 16.152C6.35431 17.8635 2.8964 17.8644 1.70771 16.152C1.41244 15.7266 0.828245 15.6213 0.402998 15.9164C-0.0223437 16.2117 -0.127812 16.7958 0.167452 17.2211C1.8886 19.7006 6.04953 19.969 8.31264 18.0625Z" fill="white"/>
</g>
<defs>
<clipPath id="clip0">
<rect width="24" height="24" fill="white"/>
</clipPath>
</defs>
</svg>
