<svg width="266" height="45" viewBox="0 0 266 45" fill="none" xmlns="http://www.w3.org/2000/svg">
<path d="M47.4686 23.3233H52.733C53.4723 23.3233 54.0718 23.9272 54.0718 24.6722C54.0718 25.4172 53.4723 26.0212 52.733 26.0212H46.3833C46.2842 26.0212 46.1883 26.0569 46.113 26.1218L44.1958 27.7744C43.9023 28.0273 44.0799 28.5116 44.4661 28.5116H52.415C52.4182 28.5116 52.4207 28.509 52.4207 28.5057C52.4207 28.5022 52.4239 28.4994 52.4271 28.4997C52.5274 28.5076 52.6282 28.5116 52.7304 28.5116C54.8392 28.5116 56.5484 26.7927 56.5484 24.6722C56.5484 22.6586 55.0072 21.007 53.0458 20.8458C53.0426 20.8455 53.0401 20.8427 53.0401 20.8393C53.0401 20.8357 53.0375 20.8328 53.0337 20.8328H47.3623C46.6228 20.8328 46.0233 20.2289 46.0233 19.4839C46.0233 18.7388 46.6228 18.1348 47.3623 18.1348H53.7034C53.8075 18.1348 53.9084 18.0953 53.985 18.0241L55.765 16.3715C56.044 16.113 55.8621 15.6445 55.4834 15.6445H47.4686C47.4682 15.6445 47.468 15.6448 47.468 15.6452C47.468 15.6455 47.4677 15.6458 47.4673 15.6458C47.4332 15.6449 47.399 15.6445 47.3648 15.6445C45.2562 15.6445 43.5469 17.3634 43.5469 19.4839C43.5469 21.6043 45.2562 23.3233 47.3648 23.3233C47.399 23.3233 47.4332 23.3228 47.4673 23.3219C47.4677 23.3219 47.468 23.3222 47.468 23.3226C47.468 23.3229 47.4682 23.3233 47.4686 23.3233Z" fill="white"/>
<path d="M78.1318 15.6445C77.9013 15.6445 77.7148 15.832 77.7148 16.0634V28.0927C77.7148 28.3241 77.9013 28.5116 78.1318 28.5116H87.7713C87.8862 28.5116 87.9966 28.4637 88.0752 28.3793L89.2819 27.0853C89.5315 26.8178 89.3425 26.3799 88.978 26.3799H80.5611C80.3313 26.3799 80.1448 26.1923 80.1448 25.9609V16.0634C80.1448 15.832 79.9578 15.6445 79.7279 15.6445H78.1318Z" fill="white"/>
<path fill-rule="evenodd" clip-rule="evenodd" d="M62.6914 15.6445C62.6908 15.6445 62.6901 15.645 62.6901 15.6456C62.6901 15.6462 62.6895 15.6467 62.6889 15.6467C61.4566 15.7001 60.4677 16.6915 60.414 17.9263C60.414 17.9268 60.4134 17.9273 60.4134 17.9273C60.4127 17.9273 60.4127 17.9275 60.4121 17.9277C60.4121 17.9279 60.4121 17.9282 60.4121 17.9285V26.0201C60.4121 26.0207 60.4127 26.0212 60.4127 26.0212C60.4134 26.0212 60.414 26.0217 60.414 26.0224C60.4127 26.0564 60.4121 26.0906 60.4121 26.125C60.4121 27.408 61.4222 28.4545 62.6889 28.5094C62.6895 28.5094 62.6901 28.5099 62.6901 28.5105V28.511V28.5113C62.6908 28.5115 62.6908 28.5116 62.6914 28.5116H71.4377C71.4384 28.5116 71.439 28.5111 71.439 28.5105L71.4396 28.5099V28.5095L71.4403 28.5094C72.707 28.4545 73.717 27.408 73.717 26.125C73.717 26.0906 73.7164 26.0564 73.7151 26.0224C73.7151 26.0217 73.7158 26.0212 73.7164 26.0212C73.7164 26.0212 73.717 26.0207 73.717 26.0201V17.9285C73.717 17.9279 73.7164 17.9273 73.7158 17.9273C73.7151 17.9273 73.7151 17.9268 73.7151 17.9263C73.6615 16.6915 72.6725 15.7001 71.4403 15.6467C71.4396 15.6467 71.439 15.6462 71.439 15.6456C71.439 15.645 71.4384 15.6445 71.4377 15.6445H62.6914ZM64.3214 17.9273L64.3208 17.9276V17.928C64.3208 17.9284 64.3208 17.9287 64.3201 17.9287C63.5502 17.9623 62.9315 18.586 62.8983 19.3627C62.8983 19.3631 62.8983 19.3634 62.8976 19.3634C62.8976 19.3634 62.897 19.3637 62.897 19.3641V24.454C62.897 24.4544 62.8976 24.4547 62.8976 24.4547C62.8983 24.4547 62.8983 24.455 62.8983 24.4554C62.8976 24.4768 62.897 24.4983 62.897 24.5199C62.897 25.327 63.5285 25.9853 64.3201 26.0198C64.3208 26.0198 64.3208 26.0201 64.3208 26.0205V26.0209L64.3214 26.0211V26.0212H69.8077L69.8084 26.0208V26.0205C69.8084 26.0201 69.8084 26.0198 69.809 26.0198C70.6007 25.9853 71.2321 25.327 71.2321 24.5199C71.2321 24.4983 71.2315 24.4768 71.2309 24.4554V24.4552V24.455L71.2315 24.4547C71.2315 24.4547 71.2321 24.4544 71.2321 24.454V19.3641C71.2321 19.3637 71.2315 19.3634 71.2315 19.3634C71.2309 19.3634 71.2309 19.3631 71.2309 19.3627C71.1977 18.586 70.579 17.9623 69.809 17.9287C69.8084 17.9287 69.8084 17.9284 69.8084 17.928V17.9277L69.8077 17.9275V17.9273H64.3214Z" fill="white"/>
<path fill-rule="evenodd" clip-rule="evenodd" d="M103.299 28.0927C103.299 28.3241 103.484 28.5116 103.712 28.5116H105.347C105.575 28.5116 105.76 28.3241 105.76 28.0927V18.1359C105.76 18.1354 105.759 18.1348 105.759 18.1348V18.1347L105.758 18.1346C105.758 18.1344 105.758 18.1341 105.758 18.1338C105.759 18.0997 105.76 18.0655 105.76 18.0311C105.76 16.7481 104.759 15.7016 103.505 15.6467C103.504 15.6467 103.503 15.6462 103.503 15.6456C103.503 15.645 103.503 15.6445 103.502 15.6445H95.1051C95.1045 15.6445 95.1039 15.645 95.1039 15.6455C95.1039 15.6462 95.1032 15.6466 95.1026 15.6466C95.0694 15.6452 95.0355 15.6445 95.0017 15.6445C93.6986 15.6445 92.6426 16.713 92.6426 18.0311C92.6426 18.0655 92.6432 18.0997 92.6445 18.1338C92.6445 18.1343 92.6445 18.1348 92.6439 18.1348C92.6432 18.1348 92.6426 18.1354 92.6426 18.1359V28.0927C92.6426 28.3241 92.8277 28.5116 93.0557 28.5116H94.6908C94.9187 28.5116 95.1039 28.3241 95.1039 28.0927V23.9497C95.1039 23.7183 95.289 23.5308 95.5176 23.5308H102.885C103.113 23.5308 103.299 23.7183 103.299 23.9497V28.0927ZM95.1039 21.244V19.1726C95.1039 18.3702 95.7468 17.7198 96.5398 17.7198H101.863C102.656 17.7198 103.299 18.3702 103.299 19.1726V21.244C103.299 21.4754 103.113 21.663 102.885 21.663H95.5176C95.289 21.663 95.1039 21.4754 95.1039 21.244Z" fill="white"/>
<path fill-rule="evenodd" clip-rule="evenodd" d="M137.808 28.5116C137.577 28.5116 137.39 28.3241 137.39 28.0927V23.9497C137.39 23.7183 137.204 23.5308 136.973 23.5308H129.524C129.293 23.5308 129.107 23.7183 129.107 23.9497V28.0927C129.107 28.3241 128.92 28.5116 128.689 28.5116H127.039C126.808 28.5116 126.621 28.3241 126.621 28.0927V18.1359V18.1357L126.622 18.1353C126.622 18.135 126.622 18.1348 126.622 18.1348C126.623 18.1348 126.624 18.1343 126.624 18.1338C126.622 18.0997 126.621 18.0655 126.621 18.0311C126.621 16.713 127.687 15.6445 129.003 15.6445C129.037 15.6445 129.072 15.6452 129.105 15.6466C129.106 15.6466 129.107 15.6462 129.107 15.6455C129.107 15.645 129.107 15.6445 129.107 15.6445H137.596C137.597 15.6445 137.598 15.645 137.598 15.6456C137.598 15.6462 137.598 15.6467 137.598 15.6467C138.865 15.7016 139.876 16.7481 139.876 18.0311C139.876 18.0655 139.874 18.0997 139.873 18.1338C139.873 18.1343 139.874 18.1348 139.874 18.1348C139.874 18.1348 139.875 18.135 139.875 18.1352C139.875 18.1354 139.876 18.1357 139.876 18.1359V28.0927C139.876 28.3241 139.689 28.5116 139.458 28.5116H137.808ZM129.107 19.1726V21.244C129.107 21.4754 129.293 21.663 129.524 21.663H136.973C137.204 21.663 137.39 21.4754 137.39 21.244V19.1726C137.39 18.3702 136.741 17.7198 135.941 17.7198H130.556C129.755 17.7198 129.107 18.3702 129.107 19.1726Z" fill="white"/>
<path d="M111.912 15.6445C112.033 15.6445 112.148 15.6982 112.227 15.7916L119.559 24.532C119.808 24.8284 120.287 24.6497 120.287 24.2602V16.0634C120.287 15.832 120.471 15.6445 120.7 15.6445H122.335C122.563 15.6445 122.748 15.832 122.748 16.0634V28.0927C122.748 28.3241 122.563 28.5116 122.335 28.5116H120.302C120.293 28.5116 120.287 28.5046 120.287 28.496C120.287 28.4922 120.285 28.4886 120.283 28.4857L112.828 19.8062C112.576 19.5146 112.103 19.6947 112.103 20.0817V28.0927C112.103 28.3241 111.918 28.5116 111.69 28.5116H110.044C109.816 28.5116 109.631 28.3241 109.631 28.0927V16.0634C109.631 15.832 109.816 15.6445 110.044 15.6445H111.912Z" fill="white"/>
<path d="M5.53946 28.9529C5.74332 28.7492 6.01971 28.6348 6.30792 28.6348H32.8973C33.3817 28.6348 33.6242 29.2205 33.2815 29.5628L28.0275 34.8127C27.8237 35.0164 27.5473 35.1308 27.2591 35.1308H0.669648C0.18531 35.1308 -0.0571788 34.5451 0.285421 34.2027L5.53946 28.9529Z" fill="url(#paint0_linear_389:41)"/>
<path d="M5.53946 9.33963C5.74332 9.13589 6.01971 9.02148 6.30792 9.02148H32.8973C33.3817 9.02148 33.6242 9.60721 33.2815 9.94962L28.0275 15.1994C27.8237 15.4031 27.5473 15.5175 27.2591 15.5175H0.669648C0.18531 15.5175 -0.0571788 14.9318 0.285421 14.5894L5.53946 9.33963Z" fill="url(#paint1_linear_389:41)"/>
<path d="M28.0275 19.0837C27.8237 18.88 27.5473 18.7656 27.2591 18.7656H0.669648C0.18531 18.7656 -0.0571788 19.3513 0.285421 19.6937L5.53946 24.9435C5.74332 25.1472 6.01971 25.2617 6.30792 25.2617H32.8973C33.3817 25.2617 33.6242 24.6759 33.2815 24.3335L28.0275 19.0837Z" fill="url(#paint2_linear_389:41)"/>
<path d="M176.709 30.3884C171.935 30.3884 168.063 26.526 168.063 21.7624C168.063 17.1276 175.871 8.95217 176.193 8.6303L176.581 8.17969L176.968 8.6303C177.29 8.95217 185.291 17.1276 185.291 21.7624C185.356 26.526 181.484 30.3884 176.709 30.3884ZM176.645 9.85338C175.935 10.6259 174.516 12.1708 173.096 14.102C170.58 17.4494 169.225 20.0887 169.225 21.7624C169.225 25.8823 172.58 29.2297 176.709 29.2297C180.839 29.2297 184.194 25.8823 184.194 21.7624C184.194 20.0887 182.839 17.4494 180.258 14.102C178.839 12.2352 177.355 10.6259 176.645 9.85338Z" fill="url(#paint3_linear_389:41)"/>
<path d="M176.711 33.1561C170.387 33.1561 165.29 28.0706 165.29 21.7621C165.29 15.6467 173.871 7.08505 174.259 6.69882C174.517 6.5057 174.839 6.5057 175.097 6.69882C175.291 6.9563 175.291 7.27817 175.097 7.53567C174.968 7.60004 166.451 16.0973 166.451 21.7621C166.451 27.4269 171.032 31.9974 176.711 31.9974C182.389 31.9974 186.97 27.4269 186.97 21.7621C186.97 19.4447 185.486 16.2261 182.647 12.4924C180.453 9.5956 178.259 7.40692 178.259 7.40692C178.001 7.2138 178.001 6.82757 178.259 6.57007C178.453 6.31258 178.84 6.31258 179.098 6.57007C179.485 6.9563 188.196 15.6467 188.196 21.7621C188.131 28.0706 183.034 33.1561 176.711 33.1561Z" fill="url(#paint4_linear_389:41)"/>
<path d="M176.71 35.9244C169.096 35.9244 162.837 29.6801 162.837 22.0841C162.837 18.9299 164.45 15.0675 167.547 10.5614C169.87 7.27836 172.129 4.89655 172.258 4.76781C172.451 4.51031 172.838 4.51031 173.096 4.76781C173.354 4.96093 173.354 5.34717 173.096 5.60466C173.096 5.60466 170.774 7.98646 168.515 11.2695C165.547 15.5181 163.999 19.2517 163.999 22.1485C163.999 29.1652 169.741 34.83 176.71 34.83C183.678 34.83 189.421 29.0365 189.421 22.0841C189.421 19.1873 187.872 15.4537 184.904 11.2051C182.646 7.98646 180.323 5.60466 180.323 5.54028C180.129 5.28279 180.129 4.96093 180.323 4.70343C180.581 4.51031 180.904 4.51031 181.162 4.70343C181.484 5.15404 190.582 14.5525 190.582 22.0841C190.582 29.6801 184.388 35.9244 176.71 35.9244Z" fill="url(#paint5_linear_389:41)"/>
<path d="M196.583 24.8532L199.357 24.5957C199.551 25.4969 199.873 26.205 200.389 26.6556C200.906 27.1062 201.615 27.2993 202.454 27.2993C203.357 27.2993 204.067 27.1062 204.519 26.72C204.971 26.3338 205.229 25.8832 205.229 25.3682C205.229 25.0463 205.1 24.7244 204.906 24.5313C204.712 24.2738 204.39 24.0807 203.874 23.9519C203.551 23.8231 202.777 23.6301 201.615 23.3082C200.067 22.922 199.034 22.4714 198.389 21.892C197.55 21.1195 197.099 20.1539 197.099 19.0596C197.099 18.3514 197.292 17.6434 197.679 17.0641C198.067 16.4847 198.647 15.9697 199.422 15.6478C200.196 15.326 201.099 15.1328 202.196 15.1328C204.003 15.1328 205.293 15.519 206.196 16.2915C207.1 17.0641 207.552 18.094 207.616 19.3814L204.777 19.5102C204.648 18.802 204.39 18.2871 204.003 17.9652C203.616 17.6434 203.035 17.4503 202.196 17.4503C201.357 17.4503 200.712 17.6434 200.26 17.9652C199.938 18.1584 199.809 18.4802 199.809 18.8664C199.809 19.1884 199.938 19.5102 200.26 19.7033C200.647 20.0252 201.486 20.3471 202.906 20.6689C204.325 20.9908 205.293 21.3126 206.003 21.6989C206.648 22.0208 207.164 22.5358 207.552 23.1151C207.939 23.6945 208.132 24.4669 208.132 25.3682C208.132 26.205 207.939 26.9131 207.487 27.6212C207.035 28.3293 206.39 28.8443 205.551 29.1662C204.712 29.488 203.68 29.6812 202.454 29.6812C200.647 29.6812 199.292 29.2948 198.325 28.458C197.357 27.6212 196.776 26.4625 196.583 24.8532Z" fill="white"/>
<path d="M210.456 29.4863V15.3242H220.909V17.706H213.295V20.8603H220.392V23.2421H213.295V27.1045H221.167V29.4863H210.456Z" fill="white"/>
<path d="M223.684 29.4863V15.3242H229.684C231.168 15.3242 232.265 15.453 232.975 15.7104C233.685 15.9679 234.201 16.4185 234.588 17.0623C234.975 17.706 235.233 18.4784 235.233 19.3153C235.233 20.3453 234.911 21.2465 234.265 21.9546C233.62 22.6627 232.717 23.049 231.491 23.2421C232.136 23.6283 232.588 24.0145 233.039 24.4008C233.427 24.8514 234.007 25.6239 234.653 26.7183L236.395 29.4863H232.975L230.91 26.3964C230.2 25.302 229.684 24.5939 229.426 24.3364C229.168 24.0789 228.845 23.8859 228.587 23.7571C228.265 23.6283 227.813 23.6283 227.168 23.6283H226.587V29.4863H223.684ZM226.523 21.3109H228.652C230.007 21.3109 230.846 21.2465 231.233 21.1178C231.555 20.989 231.814 20.7959 232.007 20.5384C232.201 20.2809 232.265 19.8947 232.265 19.5085C232.265 19.0578 232.136 18.6716 231.878 18.3498C231.62 18.0278 231.297 17.8992 230.781 17.7704C230.523 17.7704 229.878 17.706 228.716 17.706H226.458L226.523 21.3109Z" fill="white"/>
<path d="M237.878 15.3242H240.717V22.9846C240.717 24.2077 240.781 24.9802 240.846 25.3664C240.975 25.9458 241.233 26.3964 241.749 26.7826C242.201 27.1045 242.846 27.2976 243.62 27.2976C244.459 27.2976 245.04 27.1045 245.427 26.7826C245.814 26.4607 246.072 26.0745 246.201 25.5596C246.266 25.1089 246.33 24.2721 246.33 23.1777V15.3242H249.169V22.7271C249.169 24.4008 249.105 25.6239 248.911 26.332C248.782 27.0401 248.459 27.6195 248.072 28.1344C247.685 28.585 247.104 28.9712 246.395 29.2932C245.685 29.615 244.782 29.7438 243.685 29.7438C242.33 29.7438 241.297 29.615 240.588 29.2932C239.878 28.9712 239.362 28.585 238.91 28.0701C238.523 27.5551 238.265 27.0401 238.136 26.5251C237.942 25.6882 237.878 24.5296 237.878 22.9202V15.3242Z" fill="white"/>
<path d="M252.138 29.4863V15.3242H256.397L258.978 24.9158L261.494 15.3242H265.752V29.4219H263.107V18.3498L260.332 29.4863H257.558L254.784 18.3498V29.4863H252.138Z" fill="white"/>
<defs>
<linearGradient id="paint0_linear_389:41" x1="22.6493" y1="1.85979" x2="4.24709" y2="37.1074" gradientUnits="userSpaceOnUse">
<stop stop-color="#00FFA3"/>
<stop offset="1" stop-color="#DC1FFF"/>
</linearGradient>
<linearGradient id="paint1_linear_389:41" x1="22.6493" y1="1.85963" x2="4.24709" y2="37.1071" gradientUnits="userSpaceOnUse">
<stop stop-color="#00FFA3"/>
<stop offset="1" stop-color="#DC1FFF"/>
</linearGradient>
<linearGradient id="paint2_linear_389:41" x1="22.6493" y1="1.85972" x2="4.2471" y2="37.1072" gradientUnits="userSpaceOnUse">
<stop stop-color="#00FFA3"/>
<stop offset="1" stop-color="#DC1FFF"/>
</linearGradient>
<linearGradient id="paint3_linear_389:41" x1="176.678" y1="30.3884" x2="176.678" y2="8.20376" gradientUnits="userSpaceOnUse">
<stop stop-color="#05AAC5"/>
<stop offset="1" stop-color="#71E0EC"/>
</linearGradient>
<linearGradient id="paint4_linear_389:41" x1="176.743" y1="33.1561" x2="176.743" y2="6.42259" gradientUnits="userSpaceOnUse">
<stop stop-color="#05AAC5"/>
<stop offset="1" stop-color="#71E0EC"/>
</linearGradient>
<linearGradient id="paint5_linear_389:41" x1="176.71" y1="35.9244" x2="176.71" y2="4.59027" gradientUnits="userSpaceOnUse">
<stop stop-color="#05AAC5"/>
<stop offset="1" stop-color="#71E0EC"/>
</linearGradient>
</defs>
</svg>
