<svg width="50" height="50" viewBox="0 0 50 50" fill="none" xmlns="http://www.w3.org/2000/svg">
<g clip-path="url(#clip0)">
<path d="M13.1952 28.6921C13.7496 29.7007 15.0171 30.0684 16.0247 29.514C17.0327 28.9601 17.4005 27.6921 16.8466 26.685L5.60807 6.25062H44.3931L25.0003 41.5109L21.8474 35.7777C21.293 34.7706 20.0265 34.4029 19.0184 34.9558C18.0098 35.5102 17.6421 36.7776 18.1965 37.7847L23.1754 46.8372C23.5411 47.5035 24.2409 47.917 25.0003 47.917C25.7597 47.917 26.4601 47.5035 26.8252 46.8382L49.7417 5.17183C50.0973 4.52588 50.0845 3.74159 49.7107 3.10733C49.3348 2.47359 48.6533 2.08398 47.9168 2.08398H2.08383C1.34734 2.08398 0.665281 2.47359 0.290426 3.10733C-0.0849371 3.74159 -0.0971441 4.52588 0.257874 5.17183L13.1952 28.6921Z" fill="white"/>
<path d="M25.0011 33.3328C25.7604 33.3328 26.4608 32.9193 26.826 32.254L38.2842 11.4209C38.6398 10.7749 38.627 9.99061 38.2532 9.35636C37.8773 8.72261 37.1958 8.33301 36.4593 8.33301H13.5428C12.8063 8.33301 12.1243 8.72261 11.7494 9.35636C11.374 9.99061 11.3618 10.7749 11.7169 11.4209L23.1751 32.254C23.5418 32.9193 24.2417 33.3328 25.0011 33.3328V33.3328ZM32.9356 12.4996L25.0011 26.9267L17.066 12.4996H32.9356Z" fill="white"/>
</g>
<defs>
<clipPath id="clip0">
<rect width="50" height="50" fill="white"/>
</clipPath>
</defs>
</svg>
